<svg width="2911" height="2911" viewBox="0 0 2911 2911" fill="none" xmlns="http://www.w3.org/2000/svg">
<path d="M608 1069.46V1985.45C608 2010.53 630.802 2029.42 655.438 2024.75L1369.78 1889.57C1394.41 1884.91 1417.22 1903.8 1417.22 1928.87V1966.26C1417.22 1990.94 1439.34 2009.73 1463.7 2005.73L2269.48 1873.45C2288.81 1870.27 2303 1853.57 2303 1833.98V925.012C2303 899.939 2280.2 881.048 2255.56 885.71L1541.22 1020.9C1516.59 1025.56 1493.78 1006.67 1493.78 981.595V937.182C1493.78 912.504 1471.66 893.712 1447.3 897.71L641.52 1029.99C622.188 1033.17 608 1049.87 608 1069.46Z" fill="#191919"/>
<path d="M924.58 1236.65C953.454 1231.56 975.087 1234.28 989.478 1244.8C1000.29 1252.81 1007 1264.17 1009.59 1278.86C1010.48 1283.92 1010.91 1289.33 1010.88 1295.08L1010.68 1313.92C1010.44 1328.85 1006.98 1341.08 1000.3 1350.62C993.879 1360.11 987.628 1365.39 981.55 1366.46L981.706 1369.57C988.798 1368.32 996.709 1370.97 1005.44 1377.53C1014.17 1384.08 1019.47 1392.68 1021.35 1403.32C1022.11 1407.62 1022.4 1412.27 1022.24 1417.26L1022.04 1429.44C1021.82 1451.94 1015.09 1470.76 1001.83 1485.89C988.816 1500.98 968.635 1510.94 941.28 1515.76L814.383 1538.14L814.4 1256.08L924.58 1236.65ZM918.924 1404.53L882.831 1410.9L882.958 1464.94L919.051 1458.57C919.558 1458.48 920.064 1458.39 920.571 1458.3C932.222 1456.25 940.998 1451.96 946.899 1445.43C952.755 1438.66 954.991 1431.34 953.606 1423.49C950.748 1407.28 939.187 1400.96 918.924 1404.53ZM911.095 1300.14L882.6 1305.17L882.704 1363.52L910.818 1358.56C935.134 1354.27 945.416 1341.49 941.664 1320.22C940.369 1312.87 937.04 1307.32 931.677 1303.57C926.567 1299.77 919.706 1298.62 911.095 1300.14Z" fill="white"/>
<path d="M1233.09 1403.98C1234.25 1410.57 1238.13 1413.28 1244.71 1412.12C1251.55 1410.91 1257.03 1408.64 1261.14 1405.3L1266.81 1448.57C1256.39 1460.59 1243.59 1467.94 1228.39 1470.62C1200.53 1475.54 1183.29 1468.13 1176.68 1448.4C1167.59 1470.9 1150.76 1484.31 1126.19 1488.64C1084.65 1495.97 1060.73 1481.77 1054.44 1446.06C1053.36 1439.98 1052.81 1433.16 1052.78 1425.59L1052.92 1379.73C1052.96 1356.22 1059.01 1336.48 1071.08 1320.51C1083.36 1304.24 1101.15 1294.05 1124.45 1289.94C1148.01 1285.79 1164.92 1288.42 1175.2 1297.84L1175.09 1286.11L1232.84 1275.92L1232.67 1399.35C1232.68 1400.92 1232.83 1402.46 1233.09 1403.98ZM1117.42 1405.57C1117.31 1407.94 1117.62 1411.15 1118.33 1415.21C1119.05 1419.26 1121.66 1422.98 1126.18 1426.36C1130.65 1429.49 1137.31 1430.27 1146.18 1428.71C1155.3 1427.1 1162.52 1422.17 1167.86 1413.92L1168 1348.08C1164.1 1342.24 1156.95 1340.23 1146.57 1342.06C1127.07 1345.5 1117.32 1356.88 1117.33 1376.21L1117.42 1405.57Z" fill="white"/>
<path d="M1395.55 1315.4C1393.63 1304.51 1387.35 1300 1376.71 1301.88C1366.32 1303.71 1358.4 1309.15 1352.95 1318.21L1353.04 1443.16L1288.46 1454.55L1288.53 1266.11L1348.56 1255.52L1348.33 1278.67C1360.01 1257.55 1377.25 1244.98 1400.05 1240.96C1422.84 1236.94 1438.64 1239.9 1447.45 1249.84C1453 1256.17 1456.59 1263.89 1458.19 1273.01C1459.8 1282.13 1460.66 1290.73 1460.78 1298.8L1460.84 1359.12C1460.86 1360.69 1460.97 1362.1 1461.2 1363.37C1462.4 1370.21 1466.81 1372.96 1474.4 1371.62C1480.23 1370.59 1485.2 1368.41 1489.31 1365.07L1494.98 1408.34C1484.82 1420.31 1472.14 1427.64 1456.94 1430.32C1422.5 1436.4 1402.73 1425 1397.64 1396.12C1396.74 1391.06 1396.29 1385.52 1396.27 1379.52L1396.48 1327.38C1396.44 1322.68 1396.13 1318.69 1395.55 1315.4Z" fill="white"/>
<path d="M1689.08 1390.17C1689.18 1423.32 1680.88 1451.03 1664.18 1473.31C1647.72 1495.53 1626.71 1508.9 1601.13 1513.41C1575.54 1517.92 1556.23 1516.5 1543.18 1509.14C1530.38 1501.73 1522.64 1490.43 1519.96 1475.23C1516.03 1452.94 1526.8 1431.06 1552.26 1409.6C1529.53 1406.55 1515.88 1392.12 1511.33 1366.28C1510.21 1359.95 1509.62 1352.87 1509.54 1345.05L1509.3 1299.26C1509.34 1275.75 1515.52 1255.99 1527.84 1239.97C1540.12 1223.7 1557.91 1213.51 1581.21 1209.41C1604.77 1205.25 1621.86 1208.11 1632.48 1217.99L1632.61 1205.43L1689.22 1195.45L1689.08 1390.17ZM1574.18 1325.03C1574.07 1327.4 1574.38 1330.61 1575.09 1334.67C1575.81 1338.72 1578.42 1342.44 1582.94 1345.82C1587.4 1348.95 1594.07 1349.73 1602.94 1348.17C1612.05 1346.56 1619.28 1341.63 1624.62 1333.38L1624.76 1267.54C1620.1 1261.83 1612.83 1259.85 1602.95 1261.59C1593.07 1263.33 1585.79 1267.23 1581.11 1273.28C1576.43 1279.33 1574.09 1286.79 1574.09 1295.67L1574.18 1325.03ZM1600.28 1457.54C1616.75 1454.64 1624.88 1437.8 1624.67 1407.02L1624.59 1384.31C1592.28 1406.98 1577.61 1426.68 1580.55 1443.39C1581.45 1448.46 1583.55 1452.26 1586.88 1454.81C1590.5 1457.57 1594.97 1458.48 1600.28 1457.54Z" fill="white"/>
<path d="M1905.14 1285.48C1906.3 1292.07 1910.17 1294.78 1916.76 1293.62C1923.6 1292.41 1929.07 1290.14 1933.18 1286.8L1938.85 1330.07C1928.44 1342.09 1915.63 1349.44 1900.43 1352.12C1871.81 1357.17 1854.29 1348.9 1847.87 1327.31C1836.56 1352.02 1817.99 1366.66 1792.15 1371.22C1766.57 1375.73 1748.95 1372.83 1739.3 1362.52C1732.94 1356.06 1728.93 1348.15 1727.28 1338.78C1725.63 1329.41 1724.87 1320.66 1725.01 1312.54L1725.18 1189.11L1789.77 1177.72L1789.73 1281.93C1789.77 1286.63 1790.2 1291.25 1791 1295.81C1793.15 1307.97 1801.06 1312.84 1814.73 1310.43C1826.13 1308.42 1834.56 1302.89 1840.01 1293.83L1840.3 1168.81L1904.89 1157.43L1904.71 1280.86C1904.73 1282.42 1904.87 1283.96 1905.14 1285.48Z" fill="white"/>
<path d="M2037.66 1272.3C2043.49 1271.27 2048.46 1269.09 2052.57 1265.75L2058.24 1309.02C2048.08 1321 2035.4 1328.33 2020.2 1331.01C1997.15 1335.07 1981.27 1332.39 1972.56 1322.95C1966.75 1316.66 1963.15 1309.59 1961.76 1301.74C1960.34 1293.64 1959.59 1286.46 1959.53 1280.2L1959.69 1147.76L2024.27 1136.37L2024.1 1259.8C2024.11 1261.37 2024.23 1262.78 2024.46 1264.05C2025.66 1270.89 2030.06 1273.64 2037.66 1272.3ZM1956.36 1084.49C1953.51 1068.28 1954.97 1055.88 1960.77 1047.29C1966.78 1038.39 1977.38 1032.6 1992.58 1029.93C2013.85 1026.17 2026.14 1033.67 2029.45 1052.41C2032.26 1068.37 2030.64 1080.67 2024.59 1089.31C2018.8 1097.9 2008.17 1103.56 1992.72 1106.29C1971.7 1110 1959.58 1102.73 1956.36 1084.49Z" fill="white"/>
<path d="M990.734 1672.32C995.482 1674.74 994.854 1678.91 993.331 1683.36C975.641 1718.08 928.97 1764.2 893.516 1774.73C869.999 1782.37 869.257 1752.65 872.276 1737.55C876.824 1717.26 888.824 1696.27 907.593 1686.21C919.552 1680.35 929.272 1685.11 931.404 1698.53C934.83 1718.22 909.817 1736.5 893.983 1742.63C887.107 1745.86 884.71 1747.63 886.434 1755.98C889.686 1778.94 963.144 1716.2 979.961 1678.79C981.775 1675.23 985.09 1670.19 990.734 1672.32ZM891.044 1727.49C887.707 1735.51 899.98 1727.56 901.481 1726.08C909.186 1721.6 916.398 1713.31 918.84 1705.59C921.281 1697.86 917.429 1695.15 911.136 1700.17C903.05 1705.76 896.196 1715.92 892.254 1725.12C891.358 1725.41 890.753 1726.6 891.044 1727.49Z" fill="white"/>
<path d="M992.845 1725.62C998.534 1721.79 1016.27 1710.08 1007.1 1702.41C997.92 1694.75 970.585 1695.21 979.142 1676.58C982.172 1669.9 994.642 1655.7 1002.24 1655.46L1002.76 1655.54C1008.57 1655.88 1009.93 1662.37 1005.95 1666.88C1002.95 1669.84 992.249 1676.53 993.705 1681.01C995.239 1684.97 1006.02 1686.92 1010.4 1688.96C1012.25 1690.09 1013.81 1691.07 1015.44 1692.28C1021.58 1697.46 1025.39 1706.13 1022.2 1713.85C1017.43 1724.31 1000.43 1737.51 990.33 1743.02C986.293 1745.08 980.324 1746.52 978.656 1740.63C976.697 1733.83 988.13 1728.63 992.845 1725.62Z" fill="white"/>
<path d="M1040.68 1663.52C1040.51 1656.15 1040.56 1649.45 1040.92 1642.15C1041.01 1639.4 1041.74 1631.73 1037.65 1631.33C1034.08 1631 1025.55 1635.26 1021.6 1636.79C1010.69 1641.33 999.339 1645.26 988.208 1649.87C979.54 1653.67 972.251 1642.67 982.565 1637.83C986.003 1636.22 991.154 1634.55 994.889 1633.09C1010.28 1627.1 1028.05 1620.83 1035.84 1605.17C1039.39 1597.83 1039.59 1591.57 1040.02 1583.76C1040.2 1579.74 1041.12 1575.72 1045.74 1575.46C1050.29 1574.97 1053.31 1578.94 1053.21 1583.19C1053.47 1587.81 1053.28 1593.32 1053.32 1598.01C1052.99 1601.58 1051.66 1609.69 1057.33 1608.84L1058.45 1608.47C1062.33 1607.46 1068.09 1604.6 1072.05 1603.07C1086.16 1597.74 1100.36 1591.89 1114.47 1586.56C1118.88 1584.88 1124.17 1583.65 1126.44 1589.11C1129.36 1596.57 1117.95 1599.54 1112.87 1601.44C1096.29 1607.57 1079.93 1614.37 1063.28 1620.28C1050.95 1625.02 1053.09 1628.54 1053.52 1640.53C1053.87 1653.05 1053.99 1666.38 1053.97 1679.26C1054.18 1709.65 1054.32 1740.55 1054.83 1771.09C1054.73 1775.34 1055.94 1782.87 1053.08 1786.27C1049.62 1790.12 1043.16 1788.5 1042.01 1782.69C1041.29 1778.96 1041.59 1769.95 1041.69 1765.7C1041.28 1731.67 1041.09 1697.56 1040.68 1663.52Z" fill="white"/>
<path d="M1327.07 1520.83C1360.25 1514.98 1385.41 1519.16 1402.54 1533.37C1415.16 1544.21 1423.14 1559.12 1426.49 1578.12C1427.69 1584.96 1428.33 1592.29 1428.41 1600.11L1428.53 1687.45C1428.51 1716.96 1420.14 1742.07 1403.42 1762.78C1386.7 1783.49 1362.64 1796.61 1331.23 1802.15L1220.67 1821.64L1220.69 1539.58L1327.07 1520.83ZM1313.58 1584.32L1288.89 1588.67L1289.25 1748.44L1325.34 1742.07C1337.24 1739.98 1345.93 1735.18 1351.4 1727.69C1357.08 1719.89 1359.89 1708.43 1359.83 1693.29L1359.86 1629.04C1359.89 1623.29 1359.51 1618.14 1358.7 1613.58C1354.46 1589.51 1339.42 1579.76 1313.58 1584.32Z" fill="white"/>
<path d="M1556.4 1568.53C1583.76 1563.71 1605.45 1566.02 1621.48 1575.47C1634.02 1582.92 1641.77 1595 1644.72 1611.72C1645.7 1617.29 1646.14 1623.48 1646.03 1630.29L1645.89 1676.15C1645.81 1703.85 1637.89 1724.83 1622.13 1739.1C1606.62 1753.33 1584.17 1763.03 1554.79 1768.21C1525.41 1773.39 1502.89 1771.62 1487.25 1762.88C1475.65 1756.31 1468.37 1744.67 1465.42 1727.95C1464.4 1722.13 1463.89 1715.56 1463.91 1708.24L1464.05 1662.38C1464.07 1610.67 1494.85 1579.38 1556.4 1568.53ZM1581.26 1649.55C1581.32 1646.93 1581.02 1643.71 1580.35 1639.92C1579.64 1635.86 1577.21 1631.72 1573.07 1627.49C1568.92 1623.26 1562.67 1621.88 1554.32 1623.35C1546.21 1624.78 1539.86 1628.77 1535.27 1635.33C1530.64 1641.63 1528.37 1649.47 1528.45 1658.86L1528.54 1688.22C1528.48 1690.85 1528.81 1694.18 1529.52 1698.24C1530.19 1702.04 1532.57 1705.93 1536.67 1709.9C1540.77 1713.88 1546.87 1715.16 1554.97 1713.73C1563.33 1712.25 1569.81 1708.24 1574.4 1701.69C1578.94 1694.88 1581.26 1687.29 1581.35 1678.91L1581.26 1649.55Z" fill="white"/>
<path d="M1863.23 1648.01C1864.39 1654.6 1868.26 1657.31 1874.85 1656.15C1881.69 1654.94 1887.16 1652.67 1891.27 1649.34L1896.94 1692.6C1886.53 1704.63 1873.72 1711.98 1858.52 1714.66C1829.9 1719.7 1812.38 1711.43 1805.96 1689.84C1794.65 1714.56 1776.08 1729.19 1750.24 1733.75C1724.66 1738.26 1707.04 1735.36 1697.39 1725.05C1691.03 1718.6 1687.02 1710.68 1685.37 1701.31C1683.72 1691.94 1682.96 1683.2 1683.1 1675.08L1683.27 1551.65L1747.86 1540.26L1747.82 1644.47C1747.86 1649.16 1748.29 1653.79 1749.09 1658.35C1751.24 1670.5 1759.15 1675.38 1772.82 1672.96C1784.22 1670.96 1792.65 1665.42 1798.1 1656.36L1798.39 1531.35L1862.98 1519.96L1862.8 1643.39C1862.82 1644.95 1862.96 1646.49 1863.23 1648.01Z" fill="white"/>
<path d="M2114.13 1664.1L2043.46 1676.56L2007.17 1628.51L1970.89 1689.36L1900.23 1701.82L1965.81 1593.89L1900.21 1510.65L1972.02 1497.99L2007.03 1545.48L2042.3 1485.6L2114.11 1472.93L2047.94 1579.79L2114.13 1664.1Z" fill="white"/>
</svg>
